<svg width="22" height="22" viewBox="0 0 22 22" fill="none" xmlns="http://www.w3.org/2000/svg">
<path d="M21.9998 11C21.9998 4.92487 17.075 0 10.9999 0C4.92482 0 0 4.92487 0 11C0 17.0752 4.92482 22 10.9999 22C17.075 22 21.9998 17.0752 21.9998 11Z" fill="#895AF8"/>
<path d="M7.34266 14.6573C10.9224 18.2371 16.3118 18.6517 19.3802 15.5833C22.4486 12.5148 22.034 7.12539 18.4542 3.54558C14.8745 -0.0342341 9.48508 -0.448804 6.4167 2.61961C3.34833 5.68802 3.76289 11.0775 7.34266 14.6573Z" fill="#80BEFF"/>
<path d="M12.2959 9.70419C14.0858 11.4941 16.7556 11.7263 18.2591 10.2227C19.7626 8.71922 19.5304 6.04937 17.7405 4.25946C15.9507 2.46956 13.2808 2.2374 11.7773 3.74092C10.2738 5.24444 10.506 7.91429 12.2959 9.70419Z" fill="white"/>
</svg>
